<?xml version="1.0" encoding="UTF-8"?>
<svg xmlns="http://www.w3.org/2000/svg" width="300mm" height="300mm" viewBox="0 0 300 300">
  <g fill="none" stroke="#ff0000" stroke-width="0.769412">
    <path d="M25.587676,119.117328 L32.681947,101.459237 L70.940076,102.19969 L108.991953,85.871693 L127.430047,112.546606 L125.84914,116.481585 L108.538122,90.280619 L70.152643,105.808137 L31.918412,104.266628 L25.587676,119.117328 Z" />
    <path d="M19.945982,132.351671 L31.918412,104.266628 L70.152643,105.808137 L108.538122,90.280619 L126.413535,117.335821 L124.825446,121.061175 L108.223557,94.751622 L69.521312,109.47185 L31.327749,107.129961 L19.945982,132.351671 Z" />
    <path d="M18.432935,135.704545 L31.327749,107.129961 L69.521312,109.47185 L108.223557,94.751622 L125.528448,122.175244 L123.946881,125.679955 L108.049761,99.277846 L69.047727,113.184327 L30.911585,110.043086 L18.572651,135.925957 L18.432935,135.704545 Z" />
    <path d="M17.421178,138.341354 L30.911585,110.043086 L69.047727,113.184327 L108.049761,99.277846 L124.776539,127.05786 L123.215568,130.332246 L108.017971,103.852359 L68.733255,116.938993 L30.671263,112.999778 L17.699758,138.804022 L17.421178,138.341354 Z" />
    <path d="M16.59118,141.009318 L30.671263,112.999778 L68.733255,116.938993 L108.017971,103.852359 L124.1593,131.97658 L122.633257,135.012341 L108.129153,108.468164 L68.578987,120.729211 L30.607839,115.99375 L16.996061,141.714771 L16.59118,141.009318 Z" />
    <path d="M15.944257,143.702276 L30.607839,115.99375 L68.578987,120.729211 L108.129153,108.468164 L123.677953,136.924255 L122.201325,139.714514 L108.384,113.11821 L68.585733,124.548291 L30.722084,119.018662 L16.462449,144.650627 L15.944257,143.702276 Z" />
    <path d="M15.481435,146.414019 L30.722084,119.018662 L68.585733,124.548291 L108.384,113.11821 L123.333451,141.89369 L121.920767,144.433015 L108.782933,117.795404 L68.75402,128.389506 L31.01448,122.068133 L16.099628,147.60395 L15.481435,146.414019 Z" />
    <path d="M15.203447,149.138306 L31.01448,122.068133 L68.75402,128.389506 L108.782933,117.795404 L123.126477,146.87765 L121.792198,149.162077 L109.326094,122.492623 L69.084094,132.2461 L31.485216,125.135756 L15.908117,150.56706 L15.203447,149.138306 Z" />
    <path d="M15.110736,151.868871 L31.485216,125.135756 L69.084094,132.2461 L109.326094,122.492623 L123.05744,151.86888 L121.815847,153.895915 L110.013353,127.202728 L69.575917,136.111301 L32.134192,128.215104 L15.888253,153.532257 L15.110736,151.868871 Z" />
    <path d="M15.203448,154.599435 L32.134192,128.215104 L69.575917,136.111301 L110.013353,127.202728 L123.126477,156.86011 L121.991557,158.628732 L110.8443,131.918572 L70.229166,139.978334 L32.961018,131.299749 L16.040184,156.491846 L15.203448,154.599435 Z" />
    <path d="M15.481435,157.323722 L32.961018,131.299749 L70.229166,139.978334 L110.8443,131.918572 L123.333451,161.84407 L122.318791,163.354718 L111.818254,136.633017 L71.043236,143.840431 L33.965012,134.383264 L16.363874,159.438151 L15.481435,157.323722 Z" />
    <path d="M15.944258,160.035466 L33.965012,134.383264 L71.043236,143.840431 L111.818254,136.633017 L123.677953,166.813505 L122.796629,168.068053 L112.934254,141.338941 L72.017239,147.690847 L35.145203,137.459246 L16.859097,162.363543 L15.944258,160.035466 Z" />
    <path d="M16.591182,162.728424 L35.145203,137.459246 L72.017239,147.690847 L112.934254,141.338941 L124.1593,171.76118 L123.423773,172.762912 L123.343268,172.529807 L122.525407,169.002096 L122.128826,169.013341 L120.659888,164.75997 L120.592403,164.494306 L120.568544,164.495483 L114.191071,146.029253 L73.150005,151.522865 L36.50033,140.521319 L17.525439,165.260457 L16.591182,162.728424 Z" />
    <path d="M17.42118,165.396388 L36.50033,140.521319 L73.150005,151.522865 L114.191071,146.029253 L120.568544,164.495483 L120.057331,164.520701 L118.790036,159.936321 L118.568075,159.951936 L117.639956,157.07031 L117.120867,155.334904 L117.082154,155.338444 L115.587199,150.696905 L74.440085,155.329813 L38.028847,143.563147 L18.432937,168.033197 L19.832013,172.377052 L17.42118,165.396388 Z" />
    <path d="M120.659888,164.75997 L122.128826,169.013341 L121.743105,169.024277 L120.659888,164.75997 Z" />
    <path d="M123.343268,172.529807 L123.664468,173.459854 L123.559071,173.460634 L123.343268,172.529807 Z" />
    <path d="M18.432937,168.033197 L38.028847,143.563147 L74.440085,155.329813 L115.587199,150.696905 L117.082154,155.338444 L75.885753,159.105076 L39.728923,146.578451 L19.624849,170.632749 L24.244039,186.075518 L18.432937,168.033197 Z" />
    <path d="M117.639956,157.07031 L118.568075,159.951936 L118.503262,159.956496 L117.639956,157.07031 Z" />
    <path d="M19.624849,170.632749 L39.728923,146.578451 L75.885753,159.105076 L117.120867,155.334904 L118.503262,159.956496 L77.485009,162.842103 L41.598447,149.561014 L20.995026,173.189008 L28.376237,199.890188 L19.624849,170.632749 Z" />
    <path d="M20.995026,173.189008 L41.598447,149.561014 L77.485009,162.842103 L118.790036,159.936321 L120.057331,164.520701 L79.235581,166.534423 L43.635027,152.504695 L22.541298,175.696022 L29.840144,204.429411 L29.635037,204.44384 L20.995026,173.189008 Z" />
    <path d="M22.541298,175.696022 L43.635027,152.504695 L79.235581,166.534423 L120.592403,164.494306 L121.743105,169.024277 L81.13493,170.175654 L45.836001,155.403441 L24.261215,178.147928 L30.974081,207.102782 L30.524862,207.124942 L22.541298,175.696022 Z" />
    <path d="M24.261215,178.147928 L45.836001,155.403441 L81.13493,170.175654 L122.525407,169.002096 L123.559071,173.460634 L83.180254,173.759515 L48.198432,158.251297 L26.152054,180.538967 L32.275848,209.717558 L31.584831,209.73715 L24.261215,178.147928 Z" />
    <path d="M26.152054,180.538967 L48.198432,158.251297 L83.180254,173.759515 L124.586231,173.453031 L125.503449,177.823384 L85.368493,177.279837 L50.719123,161.042416 L28.210822,182.863494 L33.741732,212.267758 L32.812509,212.274636 L26.152054,180.538967 Z" />
    <path d="M28.210822,182.863494 L50.719123,161.042416 L85.368493,177.279837 L126.771807,177.840562 L127.574198,182.106351 L87.696332,180.730573 L53.394612,163.771071 L30.434262,185.115985 L35.367776,214.747433 L34.205194,214.731688 L28.210822,182.863494 Z" />
    <path d="M30.434262,185.115985 L53.394612,163.771071 L87.696332,180.730573 L129.078824,182.15826 L129.769002,186.303578 L90.160211,184.105808 L56.221187,166.431665 L32.818858,187.291053 L37.149788,217.150677 L35.759922,217.102727 L30.434262,185.115985 Z" />
    <path d="M32.818858,187.291053 L56.221187,166.431665 L90.160211,184.105808 L131.503727,186.399832 L132.085278,190.409338 L92.756326,187.399774 L59.194885,169.018742 L35.360842,189.383453 L39.083356,219.471639 L37.473471,219.382312 L32.818858,187.291053 Z" />
    <path d="M35.360842,189.383453 L59.194885,169.018742 L92.756326,187.399774 L134.042733,190.559128 L134.52017,194.418139 L97.157785,190.770585 L95.988618,189.764631 L94.974337,190.315612 L93.097048,189.23574 L91.811074,188.175334 L91.531226,188.335033 L62.311501,171.526993 L38.0562,191.388095 L41.16386,221.704538 L39.342365,221.565152 L35.360842,189.383453 Z" />
    <path d="M38.0562,191.388095 L62.311501,171.526993 L91.531226,188.335033 L90.696034,188.811647 L87.729003,186.467689 L87.015795,186.894735 L85.563029,186.018067 L83.748426,184.645257 L83.522768,184.786877 L65.566597,173.951272 L40.900676,193.300054 L43.386489,223.843676 L41.362887,223.646119 L38.0562,191.388095 Z" />
    <path d="M93.097048,189.23574 L94.974337,190.315612 L94.632092,190.501527 L93.097048,189.23574 Z" />
    <path d="M97.157785,190.770585 L136.691826,194.63015 L137.070548,198.324732 L136.838563,198.297168 L136.820271,198.274165 L136.772736,198.289347 L118.343384,196.099638 L118.087303,195.827808 L117.63462,196.015425 L114.253124,195.613648 L113.527826,194.875354 L112.359224,195.388622 L110.434647,195.159951 L109.031581,193.790336 L106.969166,194.748195 L106.920604,194.742425 L104.605262,192.575102 L102.75958,193.479766 L100.255455,191.232251 L98.654952,192.058751 L97.157785,190.770585 Z" />
    <path d="M40.900676,193.300054 L65.566597,173.951272 L83.522768,184.786877 L83.103891,185.049758 L79.875201,182.711823 L79.502778,182.956569 L78.484163,182.312409 L76.115008,180.671392 L76.00683,180.745773 L68.955507,176.2866 L43.889784,195.114574 L45.746249,225.883452 L43.531077,225.620253 L40.900676,193.300054 Z" />
    <path d="M85.563029,186.018067 L87.015795,186.894735 L86.851699,186.992991 L85.563029,186.018067 Z" />
    <path d="M106.920604,194.742425 L106.969166,194.748195 L106.940828,194.761356 L106.920604,194.742425 Z" />
    <path d="M110.434647,195.159951 L112.359224,195.388622 L111.19344,195.900653 L110.434647,195.159951 Z" />
    <path d="M114.253124,195.613648 L117.63462,196.015425 L115.512052,196.895135 L114.253124,195.613648 Z" />
    <path d="M118.343384,196.099638 L136.772736,198.289347 L133.335609,199.387056 L132.076699,197.870218 L128.808693,198.989861 L127.368668,197.326936 L124.3253,198.441363 L122.703213,196.645611 L119.891196,197.74264 L118.343384,196.099638 Z" />
    <path d="M136.838563,198.297168 L139.446773,198.607066 L139.491808,199.160416 L137.900188,199.632233 L136.838563,198.297168 Z" />
    <path d="M43.889784,195.114574 L68.955507,176.2866 L76.00683,180.745773 L75.916478,180.807898 L72.473343,178.528178 L47.018815,196.827086 L48.237983,227.818374 L45.842745,227.482773 L43.889784,195.114574 Z" />
    <path d="M78.484163,182.312409 L79.502778,182.956569 L79.457296,182.986459 L78.484163,182.312409 Z" />
    <path d="M47.018815,196.827086 L72.473343,178.528178 L75.916478,180.807898 L50.282839,198.433207 L50.85638,229.643079 L48.293479,229.229085 L47.018815,196.827086 Z" />
    <path d="M50.282839,198.433207 L76.115008,180.671392 L79.457296,182.986459 L53.676722,199.928755 L53.595991,231.352339 L50.878647,230.854794 L50.282839,198.433207 Z" />
    <path d="M53.593413,232.355709 L53.676722,199.928755 L79.875201,182.711823 L83.103891,185.049758 L57.195129,201.309753 L56.451242,232.941085 L53.593413,232.355709 Z" />
    <path d="M56.432739,233.727851 L57.195129,201.309753 L83.748426,184.645257 L86.851699,186.992991 L60.832534,202.57244 L59.416446,234.404413 L56.432739,233.727851 Z" />
    <path d="M59.391398,234.967462 L60.832534,202.57244 L87.729003,186.467689 L90.696034,188.811647 L64.583232,203.713276 L62.485818,235.737606 L59.391398,234.967462 Z" />
    <path d="M106.004414,250.048877 L106.412852,250.197341 L111.448659,254.349836 L106.004414,250.048877 Z" />
    <path d="M62.463982,236.071012 L64.583232,203.713276 L91.811074,188.175334 L94.632092,190.501527 L68.441345,204.728948 L65.653485,236.936141 L62.463982,236.071012 Z" />
    <path d="M106.412852,250.197341 L107.605331,250.630801 L122.960646,263.842546 L106.412852,250.197341 Z" />
    <path d="M65.64491,237.035206 L68.441345,204.728948 L95.988618,189.764631 L98.654952,192.058751 L72.400835,205.61638 L68.928443,237.856988 L75.178843,239.836839 L65.64491,237.035206 Z" />
    <path d="M107.605331,250.630801 L109.45109,251.301723 L134.157416,273.476271 L107.605331,250.630801 Z" />
    <path d="M68.928443,237.856988 L72.400835,205.61638 L100.255455,191.232251 L102.75958,193.479766 L76.455513,206.372733 L72.308686,238.53355 L89.295961,244.308521 L68.928443,237.856988 Z" />
    <path d="M109.45109,251.301723 L111.843795,252.171457 L137.095281,275.808633 L136.879962,275.919824 L109.45109,251.301723 Z" />
    <path d="M72.308686,238.53355 L76.455513,206.372733 L104.605262,192.575102 L106.940828,194.761356 L80.599049,206.995417 L75.779606,239.062336 L103.44773,249.119537 L72.308686,238.53355 Z" />
    <path d="M111.843795,252.171457 L114.695514,253.20804 L139.885024,277.796985 L139.448174,278.011108 L111.843795,252.171457 Z" />
    <path d="M75.779606,239.062336 L80.599049,206.995417 L109.031581,193.790336 L111.19344,195.900653 L84.824984,207.482093 L79.335039,239.441048 L117.946167,254.398643 L142.735213,279.631887 L142.077614,279.937299 L114.695514,253.20804 L75.779606,239.062336 Z" />
    <path d="M79.335039,239.441048 L84.824984,207.482093 L113.527826,194.875354 L115.512052,196.895135 L89.12674,207.830675 L82.968702,239.667649 L121.258113,255.430574 L145.638752,281.310618 L144.762486,281.695487 L117.946167,254.398643 L79.335039,239.441048 Z" />
    <path d="M82.968702,239.667649 L89.12674,207.830675 L118.087303,195.827808 L119.891196,197.74264 L93.497633,208.039342 L86.674201,239.740368 L124.625102,256.30171 L148.588443,282.83063 L147.496889,283.28303 L121.258113,255.430574 L82.968702,239.667649 Z" />
    <path d="M86.674201,239.740368 L93.497633,208.039342 L122.703213,196.645611 L124.3253,198.441363 L97.93088,208.106532 L90.445049,239.657707 L128.040791,257.010199 L151.577003,284.189553 L150.274826,284.697561 L124.625102,256.30171 L86.674201,239.740368 Z" />
    <path d="M90.445049,239.657707 L97.93088,208.106532 L127.368668,197.326936 L128.808693,198.989861 L102.419616,208.030952 L94.274669,239.418436 L131.498763,257.554469 L154.597084,285.3852 L153.090212,285.93699 L128.040791,257.010199 L90.445049,239.657707 Z" />
    <path d="M94.274669,239.418436 L102.419616,208.030952 L132.076699,197.870218 L133.335609,199.387056 L106.956903,207.811579 L98.156412,239.021604 L134.99253,257.933222 L157.641293,286.415571 L155.936893,286.99951 L131.498763,257.554469 L94.274669,239.418436 Z" />
    <path d="M98.156412,239.021604 L106.956903,207.811579 L136.820271,198.274165 L137.900188,199.632233 L111.535739,207.447663 L102.083565,238.466539 L138.515549,258.145447 L160.702211,287.278856 L158.808649,287.8836 L134.99253,257.933222 L98.156412,239.021604 Z" />
    <path d="M102.083565,238.466539 L111.535739,207.447663 L141.592295,198.537752 L142.49648,199.725041 L116.149077,206.938725 L106.049366,237.752847 L142.061235,258.190413 L163.772413,287.973447 L161.699212,288.588023 L138.515549,258.145447 L102.083565,238.466539 Z" />
    <path d="M106.049366,237.752847 L116.149077,206.938725 L146.385636,198.660225 L147.118451,199.665489 L120.789829,206.284564 L110.04701,236.880416 L145.62297,258.067675 L166.844488,288.497936 L164.602273,289.111835 L142.061235,258.190413 L106.049366,237.752847 Z" />
    <path d="M110.04701,236.880416 L120.789829,206.284564 L151.193128,198.641107 L151.45264,199.013231 L148.811502,199.333397 L148.362098,200.232905 L148.18654,200.273151 L144.155665,200.847679 L143.969912,201.239804 L140.200484,202.103938 L139.484609,202.221319 L139.461259,202.273404 L125.450883,205.485254 L114.069669,235.849416 L149.194114,257.777075 L169.911055,288.851124 L167.511494,289.454379 L145.62297,258.067675 L110.04701,236.880416 Z" />
    <path d="M114.069669,235.849416 L125.450883,205.485254 L139.461259,202.273404 L139.306957,202.61759 L134.805394,203.452867 L134.750613,203.582255 L130.125114,204.541147 L118.110497,234.660298 L152.76802,257.318739 L172.964787,289.032027 L170.420524,289.615294 L149.194114,257.777075 L114.069669,235.849416 Z" />
    <path d="M140.200484,202.103938 L143.969912,201.239804 L143.843533,201.506593 L140.200484,202.103938 Z" />
    <path d="M148.18654,200.273151 L148.362098,200.232905 L148.353909,200.249296 L148.18654,200.273151 Z" />
    <path d="M118.110497,234.660298 L130.125114,204.541147 L134.750613,203.582255 L122.162645,233.313798 L156.338044,256.693082 L175.998422,289.039879 L173.323006,289.594508 L152.76802,257.318739 L118.110497,234.660298 Z" />
    <path d="M122.162645,233.313798 L134.805394,203.452867 L139.306957,202.61759 L126.219272,231.810931 L159.897558,255.900803 L179.00479,288.874143 L176.212589,289.392243 L156.338044,256.693082 L122.162645,233.313798 Z" />
    <path d="M126.219272,231.810931 L139.484609,202.221319 L143.843533,201.506593 L130.273559,230.152993 L163.439958,254.942887 L181.927771,288.445625 L186.449366,287.801154 L179.082944,289.009014 L159.897558,255.900803 L126.219272,231.810931 Z" />
    <path d="M130.273559,230.152993 L144.155665,200.847679 L148.353909,200.249296 L134.318717,228.341559 L166.958681,253.820601 L184.740811,287.703171 L200.76726,285.760398 L181.927771,288.445625 L163.439958,254.942887 L130.273559,230.152993 Z" />
    <path d="M134.318717,228.341559 L148.811502,199.333397 L152.831798,198.846045 L138.348001,226.37848 L170.447215,252.535493 L187.515862,286.783033 L215.049384,284.029078 L184.740811,287.703171 L166.958681,253.820601 L134.318717,228.341559 Z" />
    <path d="M138.348001,226.37848 L153.445109,197.680194 L157.271061,197.297515 L142.354724,224.26588 L173.899107,251.089392 L190.246784,285.686879 L218.831475,283.431274 L218.709584,283.662978 L187.515862,286.783033 L170.447215,252.535493 L138.348001,226.37848 Z" />
    <path d="M142.354724,224.26588 L158.049533,195.890057 L161.66572,195.604706 L146.332264,222.006154 L177.307979,249.484399 L192.927516,284.416659 L221.760399,282.74819 L221.499006,283.220781 L190.246784,285.686879 L173.899107,251.089392 L142.354724,224.26588 Z" />
    <path d="M146.332264,222.006154 L162.617889,193.965242 L166.009958,193.768954 L150.274078,219.601965 L180.667539,247.72289 L195.552083,282.974599 L224.63303,281.902234 L224.22453,282.605598 L192.927516,284.416659 L177.307979,249.484399 L146.332264,222.006154 Z" />
    <path d="M150.274078,219.601965 L167.143375,191.908264 L170.298125,191.791932 L154.173712,217.056238 L183.971587,245.807508 L198.114611,281.363204 L227.442362,280.896428 L226.880162,281.819371 L195.552083,282.974599 L180.667539,247.72289 L150.274078,219.601965 Z" />
    <path d="M154.173712,217.056238 L171.619283,189.721894 L174.524745,189.675651 L158.024815,214.372155 L187.214033,243.741159 L200.609333,279.585247 L230.181425,279.733979 L229.460012,280.864315 L198.114611,281.363204 L183.971587,245.807508 L154.173712,217.056238 Z" />
    <path d="M158.024815,214.372155 L176.039007,187.409159 L178.684518,187.422464 L161.821145,211.553154 L190.388904,241.52701 L203.030605,277.643766 L232.843309,278.418277 L231.958307,279.742916 L200.609333,279.585247 L187.214033,243.741159 L158.024815,214.372155 Z" />
    <path d="M161.821145,211.553154 L180.396057,184.973332 L182.772318,185.035065 L165.556587,208.602919 L193.490355,239.168479 L205.372911,275.542062 L235.421178,276.952882 L234.369401,278.457924 L203.030605,277.643766 L190.388904,241.52701 L161.821145,211.553154 Z" />
    <path d="M165.556587,208.602919 L184.684071,182.417929 L186.783203,182.516487 L169.225154,205.525375 L196.512679,236.669232 L207.630878,273.283687 L237.908291,275.341511 L236.687784,277.012351 L205.372911,275.542062 L193.490355,239.168479 L165.556587,208.602919 Z" />
    <path d="M169.225154,205.525375 L188.89682,179.746704 L190.712409,179.870102 L172.821006,202.324684 L199.450319,234.033178 L209.799284,270.872445 L240.298021,273.588035 L238.908092,275.409463 L207.630878,273.283687 L196.512679,236.669232 L169.225154,205.525375 Z" />
    <path d="M172.821006,202.324684 L193.028226,176.963639 L194.555359,177.099614 L176.338456,199.005237 L202.297876,231.264459 L211.873067,268.312379 L242.583874,271.696463 L241.02512,273.652775 L209.799284,270.872445 L199.450319,234.033178 L172.821006,202.324684 Z" />
    <path d="M176.338456,199.005237 L197.072365,174.072943 L198.307654,174.209062 L198.146026,174.39534 L195.499875,176.867478 L195.707903,177.205305 L192.758841,180.604134 L192.562516,180.795404 L192.575464,180.815477 L179.771977,195.571647 L205.050118,228.367446 L213.847336,265.607769 L244.759504,269.670937 L243.033828,271.746044 L211.873067,268.312379 L202.297876,231.264459 L176.338456,199.005237 Z" />
    <path d="M179.771977,195.571647 L192.575464,180.815477 L192.852911,181.245592 L189.516369,184.635292 L189.640872,184.819708 L187.609365,187.064302 L186.366009,188.381543 L186.388432,188.4133 L183.116219,192.028738 L207.701992,225.34673 L215.717379,262.76312 L246.707019,267.498651 L249.769364,264.115094 L244.929353,269.693263 L213.847336,265.607769 L205.050118,228.367446 L179.771977,195.571647 Z" />
    <path d="M192.758841,180.604134 L195.707903,177.205305 L195.910235,177.533881 L192.758841,180.604134 Z" />
    <path d="M198.146026,174.39534 L198.790876,173.652142 L198.844251,173.74303 L198.146026,174.39534 Z" />
    <path d="M183.116219,192.028738 L186.388432,188.4133 L210.248631,222.207113 L217.478671,259.783159 L248.36234,265.166649 L259.426571,253.444935 L246.707019,267.498651 L215.717379,262.76312 L207.701992,225.34673 L183.116219,192.028738 Z" />
    <path d="M187.609365,187.064302 L189.640872,184.819708 L189.677228,184.873558 L187.609365,187.064302 Z" />
    <path d="M186.366009,188.381543 L189.677228,184.873558 L212.685364,218.953604 L219.126884,256.672823 L249.891037,262.701911 L269.324327,242.959011 L248.36234,265.166649 L217.478671,259.783159 L210.248631,222.207113 L186.366009,188.381543 Z" />
    <path d="M189.516369,184.635292 L192.852911,181.245592 L215.007721,215.591404 L220.657897,253.437252 L251.289039,260.109294 L272.523461,239.421613 L272.638511,239.592026 L249.891037,262.701911 L219.126884,256.672823 L212.685364,218.953604 L189.516369,184.635292 Z" />
    <path d="M192.562516,180.795404 L195.910235,177.533881 L217.211445,212.125904 L222.067798,250.08178 L252.552494,257.393849 L274.2717,237.102909 L274.5155,237.480864 L251.289039,260.109294 L220.657897,253.437252 L215.007721,215.591404 L192.562516,180.795404 Z" />
    <path d="M195.499875,176.867478 L198.844251,173.74303 L219.292498,208.562671 L223.352898,246.611926 L253.677776,254.560815 L275.885279,234.668159 L276.247755,235.2568 L252.552494,257.393849 L222.067798,250.08178 L217.211445,212.125904 L195.499875,176.867478 Z" />
    <path d="M198.324087,172.857285 L201.650314,169.877774 L221.247067,204.90744 L224.509733,243.033385 L254.661491,251.615606 L277.360876,232.123566 L277.831443,232.924858 L253.677776,254.560815 L223.352898,246.611926 L219.292498,208.562671 L198.324087,172.857285 Z" />
    <path d="M201.031011,168.770755 L204.324098,165.94297 L223.071572,201.166104 L225.535073,239.352015 L255.500485,248.563805 L278.695315,229.475533 L279.262971,230.49023 L254.661491,251.615606 L224.509733,243.033385 L221.247067,204.90744 L201.031011,168.770755 Z" />
    <path d="M203.61674,164.613972 L206.861601,161.943601 L224.762672,197.344704 L226.425927,235.573833 L256.191851,245.411151 L279.88558,226.730644 L280.538986,227.958277 L255.500485,248.563805 L225.535073,239.352015 L223.071572,201.166104 L203.61674,164.613972 Z" />
    <path d="M206.077597,160.393157 L209.259155,157.884767 L226.317272,193.449421 L227.179552,231.704997 L256.732931,242.163528 L280.928808,223.895644 L281.65639,225.334509 L256.191851,245.411151 L226.425927,235.573833 L224.762672,197.344704 L206.077597,160.393157 Z" />
    <path d="M208.41015,156.114667 L211.513433,153.771688 L227.035752,187.952241 L226.749154,189.467747 L227.733457,190.070649 L227.736905,192.236367 L227.461554,193.880254 L227.739782,194.04276 L227.793454,227.751803 L257.121324,238.826959 L281.822303,220.977425 L282.612339,222.624578 L256.732931,242.163528 L227.179552,231.704997 L226.317272,193.449421 L208.41015,156.114667 Z" />
    <path d="M210.611212,151.784974 L213.621453,149.6097 L213.713575,149.824389 L213.7028,149.851732 L213.739716,149.88531 L221.058048,166.940448 L220.950677,167.298136 L221.3395,167.596363 L222.682298,170.725712 L222.405565,171.722986 L223.43437,172.478391 L224.198623,174.259459 L223.714035,176.159358 L225.574773,177.466532 L225.594057,177.511472 L224.874771,180.600278 L226.581074,181.746355 L225.886731,185.038747 L227.402753,186.011574 L227.035752,187.952241 L210.611212,151.784974 Z" />
    <path d="M227.733457,190.070649 L228.065588,190.274084 L227.736905,192.236367 L227.733457,190.070649 Z" />
    <path d="M227.739782,194.04276 L228.570137,194.527751 L228.023726,198.269254 L228.750162,198.673387 L228.717328,200.369856 L228.435741,202.62775 L228.671217,202.752366 L228.265393,223.720668 L257.35489,235.407592 L282.563537,217.983003 L283.404248,219.834272 L257.121324,238.826959 L227.793454,227.751803 L227.739782,194.04276 Z" />
    <path d="M212.677849,147.410662 L213.134545,147.094986 L214.338963,148.237463 L213.713575,149.824389 L212.677849,147.410662 Z" />
    <path d="M213.739716,149.88531 L216.408922,152.313093 L215.724758,154.16176 L218.328399,156.432114 L217.608277,158.510675 L220.095083,160.589095 L219.35096,162.891739 L221.707023,164.778503 L221.058048,166.940448 L213.739716,149.88531 Z" />
    <path d="M221.3395,167.596363 L223.162634,168.994705 L222.682298,170.725712 L221.3395,167.596363 Z" />
    <path d="M223.43437,172.478391 L224.460693,173.231974 L224.198623,174.259459 L223.43437,172.478391 Z" />
    <path d="M225.574773,177.466532 L225.60034,177.484493 L225.594057,177.511472 L225.574773,177.466532 Z" />
    <path d="M228.265393,223.720668 L228.671217,202.752366 L229.108317,202.983683 L228.697951,206.948779 L229.096119,207.148933 L229.047567,208.353162 L228.810982,211.225417 L228.929487,211.281911 L228.593392,219.618122 L257.431757,231.911687 L283.150154,214.919503 L284.029804,216.969498 L257.35489,235.407592 L228.265393,223.720668 Z" />
    <path d="M228.717328,200.369856 L228.750162,198.673387 L228.917302,198.76637 L228.717328,200.369856 Z" />
    <path d="M228.593392,219.618122 L228.929487,211.281911 L229.028465,211.329095 L228.775737,215.450798 L257.350321,228.345612 L283.57998,211.794137 L284.486959,214.036274 L257.431757,231.911687 L228.593392,219.618122 Z" />
    <path d="M229.047567,208.353162 L229.096119,207.148933 L229.144745,207.173377 L229.047567,208.353162 Z" />
    <path d="M228.775737,215.450798 L229.028465,211.329095 L257.10925,224.715824 L283.851021,208.614187 L284.773943,211.040721 L257.350321,228.345612 L228.775737,215.450798 Z" />
    <path d="M228.810982,211.225417 L229.144745,207.173377 L256.707491,221.028861 L283.961479,205.386984 L284.889264,207.989045 L257.10925,224.715824 L228.810982,211.225417 Z" />
    <path d="M228.697951,206.948779 L229.108317,202.983683 L256.144267,217.291333 L283.909747,202.119891 L284.831711,204.887532 L256.707491,221.028861 L228.697951,206.948779 Z" />
    <path d="M228.435741,202.62775 L228.917302,198.76637 L255.419084,213.509904 L283.694425,198.820285 L284.600358,201.742532 L256.144267,217.291333 L228.435741,202.62775 Z" />
    <path d="M228.023726,198.269254 L228.570137,194.527751 L254.531728,209.691286 L283.314318,195.495535 L284.194563,198.560453 L255.419084,213.509904 L228.023726,198.269254 Z" />
    <path d="M273.873299,150.22374 L274.951561,143.786358 L273.948944,150.65169 L273.873299,150.22374 Z" />
    <path d="M227.461554,193.880254 L228.065588,190.274084 L253.482269,205.842226 L282.768446,192.152987 L283.613974,195.347742 L254.531728,209.691286 L227.461554,193.880254 Z" />
    <path d="M273.652446,148.974294 L277.416496,129.07033 L273.873299,150.22374 L273.652446,148.974294 Z" />
    <path d="M226.749154,189.467747 L227.402753,186.011574 L252.271062,201.969492 L281.928444,188.856368 L280.517845,182.453435 L282.858526,192.110881 L253.482269,205.842226 L226.749154,189.467747 Z" />
    <path d="M273.310603,147.040358 L280.161161,114.55678 L273.652446,148.974294 L273.310603,147.040358 Z" />
    <path d="M225.886731,185.038747 L226.581074,181.746355 L250.898745,198.079862 L280.824242,185.590711 L277.331876,167.991812 L281.928444,188.856368 L252.271062,201.969492 L225.886731,185.038747 Z" />
    <path d="M272.867462,144.533348 L280.712114,110.846331 L280.916068,110.977207 L273.310603,147.040358 L272.867462,144.533348 Z" />
    <path d="M224.874771,180.600278 L225.60034,177.484493 L249.366237,194.180112 L279.546725,182.320413 L274.422454,153.330512 L280.824242,185.590711 L250.898745,198.079862 L224.874771,180.600278 Z" />
    <path d="M272.33931,141.545395 L281.039205,107.436167 L281.443066,107.707429 L272.867462,144.533348 L272.33931,141.545395 Z" />
    <path d="M223.714035,176.159358 L224.460693,173.231974 L247.674743,190.277007 L278.096982,179.051962 L271.745076,138.134946 L281.203183,104.050381 L281.796477,104.467172 L272.33931,141.545395 L279.546725,182.320413 L249.366237,194.180112 L223.714035,176.159358 Z" />
    <path d="M222.405565,171.722986 L223.162634,168.994705 L245.825746,186.377286 L276.476393,175.791817 L270.982781,134.750751 L281.205237,100.696477 L281.976676,101.26291 L271.745076,138.134946 L278.096982,179.051962 L247.674743,190.277007 L222.405565,171.722986 Z" />
    <path d="M220.950677,167.298136 L221.707023,164.778503 L243.82101,182.487649 L274.68662,172.5464 L270.053712,131.399286 L281.04676,97.381963 L281.984327,98.101076 L270.982781,134.750751 L276.476393,175.791817 L245.825746,186.377286 L220.950677,167.298136 Z" />
    <path d="M219.35096,162.891739 L220.095083,160.589095 L241.662574,178.614749 L272.729609,169.322082 L268.959437,128.086967 L280.729342,94.114333 L281.820379,94.988048 L270.053712,131.399286 L274.68662,172.5464 L243.82101,182.487649 L219.35096,162.891739 Z" />
    <path d="M217.608277,158.510675 L218.328399,156.432114 L239.352752,174.76518 L270.607584,166.125169 L267.701803,124.820142 L280.254763,90.901043 L281.486062,91.930137 L268.959437,128.086967 L272.729609,169.322082 L241.662574,178.614749 L217.608277,158.510675 Z" />
    <path d="M215.724758,154.16176 L216.408922,152.313093 L236.894127,170.945461 L268.323047,162.961897 L266.28293,121.605074 L279.624985,87.749495 L280.982892,88.933579 L267.701803,124.820142 L270.607584,166.125169 L239.352752,174.76518 L215.724758,154.16176 Z" />
    <path d="M213.7028,149.851732 L214.338963,148.237463 L234.289547,167.16203 L265.87877,159.838415 L264.705212,118.447938 L278.842153,84.66702 L280.312658,86.004521 L266.28293,121.605074 L268.323047,162.961897 L236.894127,170.945461 L213.7028,149.851732 Z" />
    <path d="M211.54506,145.587245 L212.121191,144.210554 L231.542125,163.421232 L263.277794,156.760777 L262.97131,115.3548 L277.908586,81.660851 L279.477425,83.149008 L264.705212,118.447938 L265.87877,159.838415 L234.289547,167.16203 L211.54506,145.587245 Z" />
    <path d="M209.254455,141.374854 L209.758632,140.237585 L228.65523,159.729303 L260.523424,153.734931 L261.084149,112.331617 L276.826769,78.738113 L278.479528,80.372979 L262.97131,115.3548 L263.277794,156.760777 L231.542125,163.421232 L209.254455,141.374854 Z" />
    <path d="M206.834152,137.221003 L207.026664,136.810197 L208.624505,138.937407 L209.628205,138.876848 L209.750832,139.008757 L212.263831,142.212339 L212.696298,142.177143 L215.329369,145.009491 L215.788966,145.570772 L215.845749,145.564951 L225.63248,156.092367 L257.619222,150.766707 L259.04691,109.384216 L275.599355,75.905793 L277.32157,77.682247 L261.084149,112.331617 L260.523424,153.734931 L228.65523,159.729303 L206.834152,137.221003 Z" />
    <path d="M209.628205,138.876848 L209.646493,138.875745 L209.750832,139.008757 L209.628205,138.876848 Z" />
    <path d="M212.696298,142.177143 L212.990534,142.153196 L215.329369,145.009491 L212.696298,142.177143 Z" />
    <path d="M215.845749,145.564951 L216.220973,145.526488 L219.195125,149.007317 L219.334569,148.990065 L222.477743,152.516419 L254.569002,147.861806 L256.863026,106.51829 L274.229156,73.170733 L276.006411,75.082496 L259.04691,109.384216 L257.619222,150.766707 L225.63248,156.092367 L215.845749,145.564951 Z" />
    <path d="M219.334569,148.990065 L251.376825,145.025794 L254.536179,103.739387 L272.719138,70.539602 L274.537169,72.579266 L256.863026,106.51829 L254.569002,147.861806 L222.477743,152.516419 L219.334569,148.990065 Z" />
    <path d="M216.220973,145.526488 L248.04699,142.264085 L252.070289,101.052898 L271.072423,68.018879 L272.917211,70.177946 L254.536179,103.739387 L251.376825,145.025794 L219.195125,149.007317 L216.220973,145.526488 Z" />
    <path d="M212.990534,142.153196 L244.58403,139.581939 L249.469509,98.464048 L269.239824,65.701763 L266.420894,62.108176 L271.150147,67.88376 L252.070289,101.052898 L248.04699,142.264085 L215.788966,145.570772 L212.990534,142.153196 Z" />
    <path d="M209.646493,138.875745 L240.992704,136.984446 L246.738218,95.977887 L267.19032,63.636826 L257.4946,50.728894 L269.239824,65.701763 L249.469509,98.464048 L244.58403,139.581939 L212.263831,142.212339 L209.646493,138.875745 Z" />
    <path d="M206.192298,135.699405 L237.277984,134.476523 L243.881016,93.599282 L265.005932,61.69363 L248.854171,39.225871 L267.19032,63.636826 L246.738218,95.977887 L240.992704,136.984446 L208.624505,138.937407 L206.192298,135.699405 Z" />
    <path d="M202.6316,132.629155 L233.445057,132.062899 L240.902709,91.332907 L262.691173,59.876659 L246.445417,36.249394 L246.707024,36.239102 L265.005932,61.69363 L243.881016,93.599282 L237.277984,134.476523 L204.875985,135.751187 L202.6316,132.629155 Z" />
    <path d="M198.968255,129.669674 L229.499308,129.748112 L237.808308,89.183233 L260.250764,58.190188 L244.389386,34.054413 L244.929358,34.04449 L262.691173,59.876659 L240.902709,91.332907 L233.445057,132.062899 L201.02347,132.658708 L198.968255,129.669674 Z" />
    <path d="M195.206328,126.82533 L225.446312,127.536496 L234.603017,87.154524 L257.68962,56.638276 L242.220451,31.989619 L243.033832,31.991709 L260.250764,58.190188 L237.808308,89.183233 L229.499308,129.748112 L197.072353,129.664803 L195.206328,126.82533 Z" />
    <path d="M191.350093,124.100179 L221.29183,125.432177 L231.292223,85.250826 L255.012847,55.224759 L239.944731,30.05957 L241.025124,30.084978 L257.68962,56.638276 L234.603017,87.154524 L225.446312,127.536496 L193.028214,126.774106 L191.350093,124.100179 Z" />
    <path d="M187.40403,121.497959 L217.041795,123.439066 L227.881489,83.475959 L252.22573,53.953245 L237.568489,28.268696 L238.908096,28.32829 L255.012847,55.224759 L231.292223,85.250826 L221.29183,125.432177 L188.896808,123.991041 L187.40403,121.497959 Z" />
    <path d="M183.372827,119.022084 L212.702303,121.560848 L224.376544,81.833515 L249.333722,52.827103 L235.098116,26.621288 L236.687788,26.725403 L252.22573,53.953245 L227.881489,83.475959 L217.041795,123.439066 L184.684059,121.319816 L183.372827,119.022084 Z" />
    <path d="M179.261378,116.675645 L208.279603,119.800978 L220.78327,80.326846 L246.34244,51.849459 L232.540112,25.121486 L234.369405,25.27983 L249.333722,52.827103 L224.376544,81.833515 L212.702303,121.560848 L180.396045,118.764413 L179.261378,116.675645 Z" />
    <path d="M175.074783,114.461406 L203.780088,118.162678 L217.107697,78.959059 L243.257646,51.023189 L229.901067,23.773268 L231.958311,23.994839 L246.34244,51.849459 L220.78327,80.326846 L208.279603,119.800978 L176.038995,116.328586 L175.074783,114.461406 Z" />
    <path d="M170.818342,112.381806 L199.210283,116.648924 L213.355987,77.733016 L240.085246,50.350916 L227.187647,22.580439 L229.460015,22.873439 L243.257646,51.023189 L217.107697,78.959059 L203.780088,118.162678 L171.619271,114.015851 L170.818342,112.381806 Z" />
    <path d="M166.497555,110.438957 L194.576833,115.262447 L209.534428,76.651319 L236.831272,49.834999 L224.406571,21.546619 L226.880165,21.918384 L240.085246,50.350916 L213.355987,77.733016 L199.210283,116.648924 L167.143364,111.829481 L166.497555,110.438957 Z" />
    <path d="M162.118115,108.634651 L162.360246,108.681485 L165.82426,109.737051 L166.012812,109.387979 L170.430812,110.242527 L170.694623,110.316916 L170.705533,110.295665 L189.886495,114.005726 L205.64942,75.716314 L233.501876,49.477538 L221.564599,20.675231 L224.224533,21.132157 L236.831272,49.834999 L209.534428,76.651319 L194.576833,115.262447 L162.617877,109.772502 L162.118115,108.634651 Z" />
    <path d="M161.394197,108.494628 L161.446221,108.40296 L162.360246,108.681485 L161.394197,108.494628 Z" />
    <path d="M166.012812,109.387979 L166.196202,109.048467 L170.430812,110.242527 L166.012812,109.387979 Z" />
    <path d="M170.705533,110.295665 L170.9393,109.840332 L175.543137,111.035012 L175.640595,110.834981 L178.600219,111.47202 L180.362665,111.890178 L180.378957,111.854881 L185.146125,112.880982 L201.707466,74.930082 L230.103317,49.280358 L218.709586,20.074777 L214.248164,19.114486 L221.499009,20.516974 L233.501876,49.477538 L205.64942,75.716314 L189.886495,114.005726 L170.705533,110.295665 Z" />
    <path d="M175.640595,110.834981 L175.669052,110.776572 L178.600219,111.47202 L175.640595,110.834981 Z" />
    <path d="M180.378957,111.854881 L197.715158,74.294436 L226.641949,49.245015 L215.862353,19.807227 L200.178931,16.086179 L218.709586,20.074777 L230.103317,49.280358 L201.707466,74.930082 L185.146125,112.880982 L180.378957,111.854881 Z" />
    <path d="M175.669052,110.776572 L193.67917,73.810918 L223.124212,49.372788 L212.963479,19.715706 L186.148977,12.757432 L215.862353,19.807227 L226.641949,49.245015 L197.715158,74.294436 L180.362665,111.890178 L175.669052,110.776572 Z" />
    <path d="M170.9393,109.840332 L189.606241,73.480798 L219.556619,49.664678 L210.019205,19.80131 L181.485937,11.755601 L181.575995,11.570759 L212.963479,19.715706 L223.124212,49.372788 L193.67917,73.810918 L175.543137,111.035012 L170.9393,109.840332 Z" />
    <path d="M166.196202,109.048467 L185.503168,73.305067 L215.945744,50.121404 L207.035833,20.064848 L178.603761,11.400934 L178.80918,11.000819 L210.019205,19.80131 L219.556619,49.664678 L189.606241,73.480798 L170.694623,110.316916 L166.196202,109.048467 Z" />
    <path d="M161.446221,108.40296 L181.376791,73.284439 L212.298212,50.743402 L204.019713,20.506843 L175.688416,11.220908 L176.016956,10.612674 L207.035833,20.064848 L215.945744,50.121404 L185.503168,73.305067 L165.82426,109.737051 L161.446221,108.40296 Z" />
    <path d="M156.695779,107.905466 L177.233983,73.419348 L208.620687,51.530824 L200.977229,21.127525 L172.746935,11.215301 L173.20559,10.407131 L204.019713,20.506843 L212.298212,50.743402 L181.376791,73.284439 L160.939225,109.296309 L156.695779,107.905466 Z" />
    <path d="M151.951247,107.557304 L173.081638,73.709948 L204.919857,52.483538 L197.914795,21.926835 L169.786451,11.383659 L170.381378,10.384706 L200.977229,21.127525 L208.620687,51.530824 L177.233983,73.419348 L156.046724,108.995308 L151.951247,107.557304 Z" />
    <path d="M147.218939,107.359446 L168.926659,74.156112 L201.202428,53.601127 L194.838833,22.904422 L166.814175,11.725304 L167.550634,10.545621 L197.914795,21.926835 L204.919857,52.483538 L173.081638,73.709948 L151.153979,108.834393 L147.218939,107.359446 Z" />
    <path d="M142.505109,107.31252 L164.775944,74.757431 L197.475105,54.882886 L191.755769,24.059644 L163.837379,12.239342 L164.719681,10.889805 L194.838833,22.904422 L201.202428,53.601127 L168.926659,74.156112 L146.268218,108.813635 L142.505109,107.31252 Z" />
    <path d="M137.815939,107.416798 L159.656008,76.883798 L161.111771,76.374247 L161.141748,75.220366 L163.015596,74.134517 L164.576914,73.551037 L164.578535,73.228833 L193.744587,56.327829 L188.672019,25.391571 L160.863379,12.924662 L161.894838,11.416895 L191.755769,24.059644 L197.475105,54.882886 L164.775944,74.757431 L141.39666,108.93283 L137.815939,107.416798 Z" />
    <path d="M133.157542,107.672193 L133.297408,107.485067 L133.326471,107.480728 L133.337091,107.431975 L144.448113,92.566538 L144.811562,92.480681 L144.875422,91.99484 L146.914122,89.267264 L147.916151,89.008285 L148.055948,87.739615 L149.216274,86.187214 L151.103927,85.656931 L151.305603,83.391901 L151.334884,83.352727 L154.369509,82.431244 L154.508889,80.380505 L157.707356,79.335626 L157.791838,77.5363 L159.656008,76.883798 L136.546504,109.191501 L133.157542,107.672193 Z" />
    <path d="M157.899517,13.779946 L159.082407,12.126234 L188.672019,25.391571 L193.744587,56.327829 L164.578535,73.228833 L164.583371,72.267227 L168.096814,70.869682 L168.083585,70.038504 L169.569192,69.218702 L171.665375,68.333618 L171.655558,68.067383 L190.017552,57.934685 L185.593977,26.89898 L157.899517,13.779946 Z" />
    <path d="M161.141748,75.220366 L161.151863,74.831013 L163.015596,74.134517 L161.141748,75.220366 Z" />
    <path d="M131.223187,109.351223 L131.610392,107.736929 L133.297408,107.485067 L131.72492,109.588897 L131.223187,109.351223 Z" />
    <path d="M133.337091,107.431975 L134.105011,103.906477 L136.048086,103.574647 L136.71245,100.18465 L138.872598,99.769014 L139.42916,96.576167 L141.795369,96.069274 L142.251323,93.085482 L144.448113,92.566538 L133.337091,107.431975 Z" />
    <path d="M144.875422,91.99484 L145.174855,89.716785 L146.914122,89.267264 L144.875422,91.99484 Z" />
    <path d="M148.055948,87.739615 L148.195409,86.473998 L149.216274,86.187214 L148.055948,87.739615 Z" />
    <path d="M151.305603,83.391901 L151.308375,83.360776 L151.334884,83.352727 L151.305603,83.391901 Z" />
    <path d="M154.953139,14.80367 L156.288662,13.016874 L185.593977,26.89898 L190.017552,57.934685 L171.655558,68.067383 L171.637334,67.573184 L175.27639,65.946023 L175.250645,65.501123 L176.317819,64.941053 L178.923552,63.709817 L178.913225,63.578941 L186.300644,59.701902 L182.528001,28.580363 L154.953139,14.80367 Z" />
    <path d="M168.080541,69.847264 L169.569192,69.218702 L168.083585,70.038504 L168.080541,69.847264 Z" />
    <path d="M152.03158,15.994113 L153.519839,14.087578 L182.528001,28.580363 L186.300644,59.701902 L178.913225,63.578941 L178.904599,63.469632 L182.600462,61.627649 L179.480407,30.433927 L152.03158,15.994113 Z" />
    <path d="M175.247501,65.446789 L176.317819,64.941053 L175.250645,65.501123 L175.247501,65.446789 Z" />
    <path d="M149.142142,17.349359 L150.782121,15.336819 L179.480407,30.433927 L182.600462,61.627649 L178.904599,63.469632 L176.457454,32.457594 L149.142142,17.349359 Z" />
    <path d="M146.292073,18.867302 L148.081631,16.762786 L176.457454,32.457594 L178.923552,63.709817 L175.247501,65.446789 L173.46533,34.649009 L146.292073,18.867302 Z" />
    <path d="M143.488553,20.545649 L145.424418,18.363384 L173.46533,34.649009 L175.27639,65.946023 L171.637334,67.573184 L170.510147,37.00554 L143.488553,20.545649 Z" />
    <path d="M140.738672,22.381927 L142.816445,20.136242 L170.510147,37.00554 L171.665375,68.333618 L168.080541,69.847264 L167.597925,39.524281 L140.738672,22.381927 Z" />
    <path d="M97.449329,57.470431 L103.896182,54.90606 L103.56339,55.185544 L97.449329,57.470431 Z" />
    <path d="M138.049407,24.373484 L140.263581,22.07871 L167.597925,39.524281 L168.096814,70.869682 L164.583371,72.267227 L164.734583,42.202063 L138.049407,24.373484 Z" />
    <path d="M83.472408,62.693749 L103.56339,55.185544 L102.591764,56.001531 L83.472408,62.693749 Z" />
    <path d="M135.427611,26.517497 L137.771586,24.18787 L164.734583,42.202063 L164.576914,73.551037 L161.151863,74.831013 L161.925928,45.03545 L135.427611,26.517497 Z" />
    <path d="M69.530972,67.573574 L102.591764,56.001531 L101.087849,57.264544 L69.530972,67.573574 Z" />
    <path d="M128.152858,33.316345 L135.346106,26.460538 L161.925928,45.03545 L161.111771,76.374247 L157.791838,77.5363 L159.177645,48.020753 L132.992656,28.893269 L128.152858,33.316345 Z" />
    <path d="M66.042147,68.95166 L66.053513,68.709593 L101.087849,57.264544 L99.138285,58.90182 L66.042147,68.95166 Z" />
    <path d="M117.22171,43.306287 L132.992656,28.893269 L159.177645,48.020753 L157.707356,79.335626 L154.508889,80.380505 L156.495285,51.154031 L130.716614,31.482365 L117.22171,43.306287 Z" />
    <path d="M62.925313,70.373473 L62.958302,69.888088 L99.138285,58.90182 L96.814719,60.853189 L62.925313,70.373473 Z" />
    <path d="M105.979363,53.156571 L130.716614,31.482365 L156.495285,51.154031 L154.369509,82.431244 L151.308375,83.360776 L153.884257,54.431096 L128.523212,34.223876 L105.979363,53.156571 Z" />
    <path d="M59.911147,71.924357 L59.975451,71.202154 L96.814719,60.853189 L128.523212,34.223876 L153.884257,54.431096 L151.103927,85.656931 L148.195409,86.473998 L151.349816,57.847525 L126.417521,37.113616 L94.1583,63.073036 L59.911147,71.924357 Z" />
    <path d="M57.005554,73.599531 L57.11038,72.648228 L94.1583,63.073036 L126.417521,37.113616 L151.349816,57.847525 L147.916151,89.008285 L145.174855,89.716785 L148.897056,61.398664 L124.404448,40.147159 L91.608648,65.4253 L57.005554,73.599531 Z" />
    <path d="M54.214339,75.394032 L54.368326,74.222518 L91.608648,65.4253 L124.404448,40.147159 L148.897056,61.398664 L144.811562,92.480681 L142.251323,93.085482 L146.5309,65.079634 L122.488721,43.319856 L89.170728,67.905629 L54.214339,75.394032 Z" />
    <path d="M51.543197,77.302739 L51.754338,75.921016 L89.170728,67.905629 L122.488721,43.319856 L146.5309,65.079634 L141.795369,96.069274 L139.42916,96.576167 L144.256088,68.885344 L120.674884,46.626837 L86.849314,70.509458 L51.543197,77.302739 Z" />
    <path d="M48.997696,79.320382 L49.273268,77.739498 L86.849314,70.509458 L120.674884,46.626837 L144.256088,68.885344 L138.872598,99.769014 L136.71245,100.18465 L142.077174,72.810494 L118.967289,50.06302 L84.648977,73.232015 L48.997696,79.320382 Z" />
    <path d="M46.583264,81.441559 L46.929758,79.673535 L84.648977,73.232015 L118.967289,50.06302 L142.077174,72.810494 L136.048086,103.574647 L134.105011,103.906477 L139.998513,76.849585 L117.370084,53.623124 L82.574083,76.068328 L46.583264,81.441559 Z" />
    <path d="M44.305178,83.660748 L44.728235,81.718504 L82.574083,76.068328 L117.370084,53.623124 L139.998513,76.849585 L133.326471,107.480728 L131.610392,107.736929 L138.024256,80.996932 L115.887208,57.301671 L80.628781,79.01324 L44.305178,83.660748 Z" />
    <path d="M42.168543,85.972326 L42.672906,83.869593 L80.628781,79.01324 L115.887208,57.301671 L138.024256,80.996932 L130.712187,111.481628 L129.231872,111.67103 L136.15834,85.246668 L114.522383,61.093 L78.816997,82.061411 L42.168543,85.972326 Z" />
    <path d="M40.178286,88.370576 L40.767741,86.121812 L78.816997,82.061411 L114.522383,61.093 L136.15834,85.246668 L128.209452,115.571546 L126.972459,115.703551 L134.404484,89.592757 L113.279108,64.991277 L77.142424,85.207333 L40.178286,88.370576 Z" />
    <path d="M38.339132,90.849707 L39.016479,88.469999 L77.142424,85.207333 L113.279108,64.991277 L134.404484,89.592757 L125.822263,119.744515 L125.370238,119.783198 L126.413535,117.335821 L125.85924,116.496872 L125.912164,116.324713 L127.430047,112.546606 L127.183332,112.189678 L128.319684,108.493191 L128.575967,107.814534 L128.542536,107.768269 L132.766179,94.029003 L112.160651,68.990502 L75.608519,88.445334 L38.339132,90.849707 Z" />
    <path d="M36.6556,93.403865 L37.422607,90.908835 L75.608519,88.445334 L112.160651,68.990502 L132.766179,94.029003 L128.542536,107.768269 L128.321613,107.462547 L129.849023,103.146441 L129.76436,103.034305 L131.246686,98.54906 L111.170043,73.08452 L74.218496,91.769595 L36.6556,93.403865 Z" />
    <path d="M125.84914,116.481585 L125.912164,116.324713 L125.85924,116.496872 L125.84914,116.481585 Z" />
    <path d="M127.015476,111.946835 L128.319684,108.493191 L127.183332,112.189678 L127.015476,111.946835 Z" />
    <path d="M35.131982,96.027144 L35.989368,93.432851 L74.218496,91.769595 L111.170043,73.08452 L131.246686,98.54906 L129.76436,103.034305 L110.310073,77.267033 L72.975319,95.174156 L35.131982,96.027144 Z" />
    <path d="M33.77233,98.713602 L34.719742,96.036436 L72.975319,95.174156 L110.310073,77.267033 L129.849023,103.146441 L128.321613,107.462547 L109.58328,81.531609 L71.881696,98.652924 L33.77233,98.713602 Z" />
    <path d="M30.979278,105.69729 L33.616451,98.71385 L71.881696,98.652924 L109.58328,81.531609 L128.575967,107.814534 L127.015476,111.946835 L108.991953,85.871693 L70.940076,102.19969 L32.681947,101.459237 L30.979278,105.69729 Z" />
  </g>
</svg>
